# xmcd
#
# Track frame offsets:
#	150
#	16800
#	31575
#	48481
#	59596
#	73733
#	87506
#	101938
#	113402
#	127483
#	136627
#	151168
#	165772
#	177355
#	190288
#	206296
#	220759
#	238805
#	251016
#	268791
#	285032
#	301119
#	314759
#	336838
#
# Disc length: 4664 seconds
#
# Revision: 0
# Processed by: cddbd v1.5.2PL0 Copyright (c) Steve Scherf et al.
# Submitted via: EasyCDDAExtractor 16.0.6.1
#
DISCID=52123618
DTITLE=Αϊνίτης Αντώνης - Τα ρεμπέτικα του Αντώνη Αϊνίτη 1
DYEAR=2010
DGENRE=Ρεμπέτικη
TTITLE0=Αϊνίτης Αντώνης - Τα νιάτα τα μπερμπάντικα
TTITLE1=Αϊνίτης Αντώνης - Απόψε είναι βαριά
TTITLE2=Αϊνίτης Αντώνης - Η λιτανεία του μάγκα
TTITLE3=Αϊνίτης Αντώνης - Χθες το βράδυ στο σκοτάδι
TTITLE4=Αϊνίτης Αντώνης-Μπαρτζώκας Κ.-Κουτρουμάνος Κ. - Δεν ξανακάνω φυλακή
TTITLE5=Αϊνίτης Αντώνης-Μαριώ - Κάν' τονε Σταύρο, κάν' τονε
TTITLE6=Αϊνίτης Αντώνης - Μάγκας βγήκε για σεργιάνι
TTITLE7=Αϊνίτης Αντώνης - Σε τούτο το παλιόσπιτο
TTITLE8=Αϊνίτης Αντώνης - Τα πέριξ
TTITLE9=Αϊνίτης Αντώνης - Γεντί Κουλέ
TTITLE10=Αϊνίτης Αντώνης - Όσο βαριά είν' τα σίδερα
TTITLE11=Αϊνίτης Αντώνης - Ο ψαράς
TTITLE12=Αϊνίτης Αντώνης-Γαλιτόπουλος Χρήστος - Δώδεκα η ώρα
TTITLE13=Αϊνίτης Αντώνης - Η άνοιξις
TTITLE14=Αϊνίτης Αντώνης - Μέσ' στης Πεντέλης τα βουνά
TTITLE15=Αϊνίτης Αντώνης-Γαλιτόπουλος Χρήστος - Θα σε διώξω
TTITLE16=Αϊνίτης Αντώνης - Μάγκες πιάστε τα βουνά
TTITLE17=Αϊνίτης Αντώνης-χορωδία - Πέντε Έλληνες στον Άδη
TTITLE18=Αϊνίτης Αντώνης-χορωδία - Του Βοτανικού ο μάγκας
TTITLE19=Αϊνίτης Αντώνης-χορωδία - Αθηναίϊσα
TTITLE20=Αϊνίτης Αντώνης-Γαλιτόπουλος Χρήστος - Να πάμε για τη Βούλα
TTITLE21=Αϊνίτης Αντώνης - Θα βρω μουρμούρη μπαγλαμά
TTITLE22=Αϊνίτης Αντώνης - Ο Βοτανικός
TTITLE23=Αϊνίτης Αντώνης - Ο λαθρέμπορος
EXTD=
EXTT0=
EXTT1=
EXTT2=
EXTT3=
EXTT4=
EXTT5=
EXTT6=
EXTT7=
EXTT8=
EXTT9=
EXTT10=
EXTT11=
EXTT12=
EXTT13=
EXTT14=
EXTT15=
EXTT16=
EXTT17=
EXTT18=
EXTT19=
EXTT20=
EXTT21=
EXTT22=
EXTT23=
PLAYORDER=
